# xmcd
#
# Track frame offsets: 
#        150
#        15181
#        29026
#        43441
#        56770
#        68044
#        84341
#        97383
#        112116
#        122727
#        136791
#        149254
#        164973
#        177030
#        186590
#        197128
#        213336
#
# Disc length: 3010 seconds
#
# Revision: 0
# Processed by: cddbd v1.5.1PL0 Copyright (c) Steve Scherf et al.
# Submitted via: ExactAudioCopy v0.95a5
#
DISCID=080bc011
DTITLE=Glen Campbell - Glen Campbell Collection CD2
DYEAR=2004
DGENRE=Country
TTITLE0=Your Cheatin' Heart
TTITLE1=Honey Come Back
TTITLE2=For Once In My Life
TTITLE3=There Goes My Everything (with Tennessee Ernie Ford)
TTITLE4=Tomorrow Never Comes
TTITLE5=California
TTITLE6=Crying
TTITLE7=Rhinestone Cowboy
TTITLE8=Livin' In A House Full Of Love
TTITLE9=Country Boy (You Got Your Feet In LA)
TTITLE10=Cold Cold Heart
TTITLE11=He Ain't Heavy He's My Brother
TTITLE12=Homeward Bound
TTITLE13=I Believe
TTITLE14=Reason To Believe
TTITLE15=Marie
TTITLE16=William Tell Overture (Instrumental)
EXTD=
EXTT0=
EXTT1=
EXTT2=
EXTT3=
EXTT4=
EXTT5=
EXTT6=
EXTT7=
EXTT8=
EXTT9=
EXTT10=
EXTT11=
EXTT12=
EXTT13=
EXTT14=
EXTT15=
EXTT16=
PLAYORDER=
